<?xml version="1.0" ?><svg id="icons" viewBox="0 0 340 340" xmlns="http://www.w3.org/2000/svg"><title/><path d="M299.367,200.664s-.128-.268-.38-.737a28.935,28.935,0,0,0-25.852-15.157l-7.2.084a14.7,14.7,0,0,1-14.869-14.7V144.37H226.1v25.788a14.7,14.7,0,0,1-14.869,14.7l-7.2-.084a28.935,28.935,0,0,0-25.854,15.158c-.252.468-.379.736-.379.736a47.327,47.327,0,0,0-2.961,13.16,23.635,23.635,0,0,1-6.728,14.864l-30.8,31.588-37.184-52.857a22.12,22.12,0,0,0,6.8-3.842,24.226,24.226,0,0,0,7.905-11.728c.654-2.19,2.906-23.433,2.906-23.433l1.09-11.966a8.078,8.078,0,0,0-7.017-8.858,7.892,7.892,0,0,0-8.677,7.183l2.269-26.744A7.5,7.5,0,0,0,99.7,120a7.34,7.34,0,0,0-8.9,6.522l.623-9.052a6.988,6.988,0,0,0-7.171-7.575A7.2,7.2,0,0,0,77.523,116a346.56,346.56,0,0,0-4.38,40.464,1,1,0,0,1-1.966.2l-9.264-36.138a7.7,7.7,0,0,0-7.065-5.884,7.5,7.5,0,0,0-7.508,9.416l4.61,17.37a6.524,6.524,0,0,0-7.86-4.661,6.674,6.674,0,0,0-4.82,7.721l4.315,23.923A77.265,77.265,0,0,0,50,191.74a29.727,29.727,0,0,0,26.916,17.037h3.6c5.677,12.571,23.519,50.282,44.676,76.927a12.944,12.944,0,0,0,18.387,1.885c14.622-12.1,41.917-35.348,56.458-51.937V330h96.952V239.758a39.046,39.046,0,0,1,1.664-11.607A53.019,53.019,0,0,0,299.367,200.664Z" style="fill:#a8e3bd"/><path d="M251.064,170.158V144.37H226.1v15.114c5.917,5.214,16.168,13.168,25.733,15.337A14.648,14.648,0,0,1,251.064,170.158Z" style="fill:#6aa37d"/><path d="M295.5,76.9q-.037-1.233-.11-2.493a74.086,74.086,0,0,0-14.617-40.336C272.1,22.542,258.161,10,238.583,10c-19.233,0-33.02,12.1-41.722,23.458a74.527,74.527,0,0,0-15.1,41.251q-.079,1.452-.111,2.867a74.74,74.74,0,0,0,27.333,58.982c7.553,6.269,15.378,13.3,21.084,18.548a12.586,12.586,0,0,0,17.038-.009c5.7-5.242,13.52-12.269,21.066-18.532A74.819,74.819,0,0,0,295.5,76.9Z" style="fill:#a8e3bd"/><path d="M228.014,72.075a32.414,32.414,0,0,1,3.5,11.82,49.881,49.881,0,0,1-2.445,17.566,9.8,9.8,0,0,1-14.172,5.1c-5.789-3.371-12.747-9.347-15.455-19.352a27.82,27.82,0,0,1-.029-11.5C202.48,61.73,221.267,59.452,228.014,72.075Z" style="fill:#546284"/><path d="M249.148,72.075a32.414,32.414,0,0,0-3.5,11.82,49.881,49.881,0,0,0,2.445,17.566,9.8,9.8,0,0,0,14.172,5.1c5.789-3.371,12.747-9.347,15.455-19.352a27.8,27.8,0,0,0,.029-11.5C274.682,61.73,255.9,59.452,249.148,72.075Z" style="fill:#546284"/><circle cx="208.962" cy="80.019" r="5.228" style="fill:#fff"/><circle cx="256.156" cy="80.019" r="5.228" style="fill:#fff"/><path d="M194.666,222.291c-10.16,13.3-32.946,41.605-52.633,55.218a9.664,9.664,0,0,1-11.463-.3,9.736,9.736,0,0,0-11.84-.114c2.112,2.959,4.267,5.845,6.46,8.606a12.943,12.943,0,0,0,18.387,1.886c14.622-12.1,41.917-35.348,56.458-51.937V224.109A2.991,2.991,0,0,0,194.666,222.291Z" style="fill:#6aa37d"/><path d="M292.987,239.758V330a4,4,0,0,0,8,0V239.758a35.065,35.065,0,0,1,1.484-10.418,54.82,54.82,0,0,0,2.316-18.67,33.509,33.509,0,0,0-11.531-24.244c-.339-.285-.687-.568-1.042-.843a24.213,24.213,0,0,0-14.991-4.861l-11.337.132a10.7,10.7,0,0,1-10.822-10.7V153.369c0-.033-.009-.065-.009-.1,4.68-4.219,10.248-9.126,15.672-13.628,19.017-15.786,29.5-38.7,28.766-62.867q-.037-1.287-.115-2.6a77.929,77.929,0,0,0-15.413-42.509C275.155,19.956,260.132,6,238.583,6c-16.825,0-32.351,8.653-44.9,25.024a78.138,78.138,0,0,0-15.916,43.463q-.083,1.518-.117,3c-.543,23.867,9.947,46.52,28.779,62.153,5.421,4.5,10.992,9.409,15.677,13.632,0,.034-.01.066-.01.1v16.788a10.7,10.7,0,0,1-10.823,10.7l-7.2-.083-.394,0a32.805,32.805,0,0,0-29.028,17.262c-.316.586-.473.923-.473.923-.028.059-.061.134-.085.193a51.217,51.217,0,0,0-3.251,14.409,19.64,19.64,0,0,1-5.6,12.34l-27.434,28.137-31.673-45.021a25.721,25.721,0,0,0,3.349-2.361,28.028,28.028,0,0,0,9.179-13.658c.686-2.3,2.362-17.658,3.057-24.214l1.089-11.966a12.069,12.069,0,0,0-10.6-13.2,11.9,11.9,0,0,0-4.141.3l1.319-15.542A11.332,11.332,0,0,0,95.426,116.15,10.987,10.987,0,0,0,84.139,105.9a11.187,11.187,0,0,0-10.561,9.446c-.875,5.206-2.088,13.224-3.06,22.646l-4.73-18.45a11.734,11.734,0,0,0-10.806-8.889,11.5,11.5,0,0,0-11.508,14.441l1.988,7.492a10.847,10.847,0,0,0-2.314.3A10.647,10.647,0,0,0,35.334,145.2l4.284,23.754a81,81,0,0,0,6.764,24.483,33.844,33.844,0,0,0,30.536,19.337h1.021c7.269,15.847,24.107,50.209,44.115,75.411a16.76,16.76,0,0,0,11.477,6.293,17.065,17.065,0,0,0,1.8.1,16.833,16.833,0,0,0,10.79-3.9c11.344-9.386,27.781-23.368,41.67-36.684a4,4,0,1,0-5.537-5.775c-13.713,13.148-29.991,26.995-41.234,36.3a8.943,8.943,0,0,1-12.7-1.3c-21.084-26.556-39.131-64.948-44.16-76.082a4,4,0,0,0-3.645-2.354h-3.6a25.815,25.815,0,0,1-23.3-14.739,73.889,73.889,0,0,1-6.052-21.964c-.01-.123-.027-.246-.049-.368l-4.314-23.924a2.678,2.678,0,0,1,1.824-3.122,2.523,2.523,0,0,1,3.053,1.8c0,.015.012.028.016.043s0,.027.007.04l4.621,16a4,4,0,0,0,7.686-2.219l-4.6-15.939-4.6-17.351a3.5,3.5,0,0,1,3.508-4.391,3.693,3.693,0,0,1,3.324,2.879l10.943,42.687.2,1.789H57.923a4,4,0,0,0,0,8H88.005a3.992,3.992,0,0,0,2.118-7.381c1.616-17.447,4.609-39.322,4.642-39.556,0-.033,0-.065,0-.1s.015-.062.018-.095a3.342,3.342,0,0,1,4.066-2.964,3.526,3.526,0,0,1,2.565,3.787l-2.259,26.615L96.72,170.657c-3.841,1.827-10.987,6.423-12.654,15.823a4,4,0,1,0,7.877,1.4c1.395-7.86,9.259-10.463,9.571-10.563a4,4,0,0,0,2.784-3.234l2.791-18.716c.006-.043,0-.085.006-.128s.019-.081.023-.124V155.1a3.9,3.9,0,0,1,4.289-3.53,4.1,4.1,0,0,1,3.436,4.516l-1.084,11.907c-1.059,9.985-2.386,21.227-2.762,22.71a20.15,20.15,0,0,1-6.632,9.8,18.071,18.071,0,0,1-5.575,3.144,4,4,0,0,0-1.938,6.074l37.185,52.856a4,4,0,0,0,6.136.49l30.8-31.588a27.638,27.638,0,0,0,7.854-17.386,43.793,43.793,0,0,1,2.631-11.809c.048-.1.128-.253.242-.464a24.828,24.828,0,0,1,21.984-13.051l.3,0,7.2.083a18.7,18.7,0,0,0,18.915-18.7V160.09a16.376,16.376,0,0,0,16.966,0v10.068a18.7,18.7,0,0,0,18.915,18.7l11.336-.132a16.039,16.039,0,0,1,10,3.19c.267.206.529.418.778.629a25.5,25.5,0,0,1,8.7,18.468,46.867,46.867,0,0,1-1.963,15.954A43.058,43.058,0,0,0,292.987,239.758ZM84.37,113.891a2.921,2.921,0,0,1,2.262.932,3.008,3.008,0,0,1,.8,2.369l-.614,8.912c-.245,1.8-3.106,22.91-4.676,39.9H77.226l-.294-2.684a330.854,330.854,0,0,1,4.535-46.65A3.221,3.221,0,0,1,84.37,113.891Zm148.406,38.27c-5.394-4.958-13.458-12.224-21.236-18.681-16.94-14.061-26.377-34.4-25.89-55.814q.031-1.349.108-2.737a70.157,70.157,0,0,1,14.277-39.037C207.689,25.9,220.59,14,238.583,14c18.249,0,31.275,12.221,38.989,22.474a69.954,69.954,0,0,1,13.82,38.162q.069,1.2.105,2.382v0a70.345,70.345,0,0,1-25.879,56.465c-7.778,6.456-15.832,13.714-21.219,18.666A8.536,8.536,0,0,1,232.776,152.161Z" style="fill:#2d3b5b"/><path d="M232.834,102.805A53.753,53.753,0,0,0,235.5,83.64c0-.063-.01-.125-.017-.188a36.591,36.591,0,0,0-3.944-13.263h0a19.43,19.43,0,0,0-19.966-10.207A18.745,18.745,0,0,0,195.5,74.851a31.931,31.931,0,0,0,.074,13.4c3.106,11.467,11.124,18.164,17.305,21.763a13.846,13.846,0,0,0,11.75,1.042A13.651,13.651,0,0,0,232.834,102.805Zm-7.535-2.686a5.6,5.6,0,0,1-3.413,3.424,5.86,5.86,0,0,1-4.978-.441c-4.886-2.845-11.212-8.093-13.587-16.859a24.076,24.076,0,0,1,0-9.677,10.932,10.932,0,0,1,9.354-8.66,11.778,11.778,0,0,1,1.617-.11,11.294,11.294,0,0,1,10.2,6.163,28.566,28.566,0,0,1,3.038,10.271A45.682,45.682,0,0,1,225.3,100.119Z" style="fill:#2d3b5b"/><path d="M281.6,88.185a31.964,31.964,0,0,0,.056-13.333,18.745,18.745,0,0,0-16.072-14.871A19.431,19.431,0,0,0,245.62,70.188h0a36.591,36.591,0,0,0-3.944,13.263c-.007.063-.013.125-.017.188a53.753,53.753,0,0,0,2.67,19.165,13.651,13.651,0,0,0,8.2,8.252,13.85,13.85,0,0,0,11.75-1.041C270.46,106.416,278.478,99.719,281.6,88.185ZM260.254,103.1a5.871,5.871,0,0,1-4.978.44,5.6,5.6,0,0,1-3.413-3.424,46.144,46.144,0,0,1-2.224-15.892,28.55,28.55,0,0,1,3.037-10.268,11.38,11.38,0,0,1,11.814-6.053,10.932,10.932,0,0,1,9.354,8.661,24.134,24.134,0,0,1,.017,9.594h0C271.466,95.009,265.14,100.257,260.254,103.1Z" style="fill:#2d3b5b"/><path d="M204.035,230.33a20.738,20.738,0,0,0-3.215-11.1l-2.734-4.322a4,4,0,0,0-6.76,4.278l2.734,4.321a12.75,12.75,0,0,1,1.975,6.822V330a4,4,0,0,0,8,0V258.48a23.581,23.581,0,0,0,9.912,2.22h12.681a4,4,0,0,0,0-8H213.947a15.568,15.568,0,0,1-9.412-3.189l-.5-.383v-18.8Z" style="fill:#2d3b5b"/><path d="M275.54,334a4,4,0,0,0,4-4V233.247a18.6,18.6,0,0,1,3.164-10.4l2.4-3.576a4,4,0,0,0-6.642-4.457l-2.4,3.576a26.562,26.562,0,0,0-4.521,14.852v15.88l-.5.383a15.563,15.563,0,0,1-9.412,3.19H248.947a4,4,0,0,0,0,8h12.681a23.581,23.581,0,0,0,9.912-2.22V330A4,4,0,0,0,275.54,334Z" style="fill:#2d3b5b"/><path d="M238.537,265.779a4,4,0,0,0-4,4v15.178c-1.656.777-5.445,1.8-12.6.261a4,4,0,0,0-1.688,7.82,39.983,39.983,0,0,0,8.411.974,20.943,20.943,0,0,0,9.881-2.127,20.942,20.942,0,0,0,9.882,2.127,40.042,40.042,0,0,0,8.411-.974,4,4,0,0,0-1.687-7.82c-7.154,1.543-10.949.518-12.606-.259v-15.18A4,4,0,0,0,238.537,265.779Z" style="fill:#2d3b5b"/><path d="M234.537,300.546v14.346a4,4,0,0,0,8,0V300.546a4,4,0,0,0-8,0Z" style="fill:#2d3b5b"/><path d="M233.045,203.22l-11.814-6.961a4,4,0,0,0-4.06,6.892l11.813,6.961a4,4,0,1,0,4.061-6.892Z" style="fill:#2d3b5b"/><path d="M250.85,211.722a3.97,3.97,0,0,0,2.178-.649l9.072-5.907a4,4,0,1,0-4.366-6.7l-9.071,5.907a4,4,0,0,0,2.187,7.352Z" style="fill:#2d3b5b"/><path d="M236.776,119.14a5.234,5.234,0,0,0-.37-.7,4.81,4.81,0,0,0-.5-.6,3.566,3.566,0,0,0-.61-.5,3.39,3.39,0,0,0-.69-.37,3.832,3.832,0,0,0-.75-.23,3.959,3.959,0,0,0-2.31.23,3.738,3.738,0,0,0-.69.37,4.149,4.149,0,0,0-.61.5,4.006,4.006,0,0,0-.49.6,3.578,3.578,0,0,0-.369.7,3.887,3.887,0,0,0-.231.74,3.891,3.891,0,0,0,0,1.57,3.856,3.856,0,0,0,.231.739,3.55,3.55,0,0,0,.369.7,4,4,0,0,0,3.32,1.78,4.121,4.121,0,0,0,.78-.08,3.768,3.768,0,0,0,.75-.231,3.436,3.436,0,0,0,.69-.369,3.188,3.188,0,0,0,.61-.5,3.981,3.981,0,0,0,1.17-2.82,3.412,3.412,0,0,0-.08-.79A3.922,3.922,0,0,0,236.776,119.14Z" style="fill:#2d3b5b"/><path d="M248.316,119.13a4.548,4.548,0,0,0-.37-.691,4.012,4.012,0,0,0-.5-.6,3.115,3.115,0,0,0-.61-.5,3.722,3.722,0,0,0-.69-.37,3.956,3.956,0,0,0-.74-.23,4.061,4.061,0,0,0-3.62,1.1,4.006,4.006,0,0,0-.49.6,3.8,3.8,0,0,0-.369.691,4.22,4.22,0,0,0-.231.75,4.121,4.121,0,0,0-.08.78,4,4,0,0,0,1.18,2.83,3.253,3.253,0,0,0,.6.5,4.532,4.532,0,0,0,.69.369,5.246,5.246,0,0,0,.75.231,4.122,4.122,0,0,0,.78.07,4.219,4.219,0,0,0,.79-.07,4.764,4.764,0,0,0,.74-.231,3.719,3.719,0,0,0,.69-.369,3.188,3.188,0,0,0,.61-.5,4.02,4.02,0,0,0,.5-.6,4.176,4.176,0,0,0,.37-.7,3.924,3.924,0,0,0,.23-.739,3.891,3.891,0,0,0,0-1.57A4.3,4.3,0,0,0,248.316,119.13Z" style="fill:#2d3b5b"/></svg>