<?xml version="1.0" ?><svg id="icon" viewBox="0 0 340 340" xmlns="http://www.w3.org/2000/svg"><title/><polygon points="165.548 282.809 163.73 330.184 263.862 330.184 264.572 276.951 165.548 282.809" style="fill:#9a9abe"/><path d="M165.548,282.809l-.557,14.509h0l-.106,2.757c6.108,3.351,18.271,8.4,36.231,8.559a30.118,30.118,0,0,1,12.782,2.907c9.927,4.766,18.556,10.888,22.821,18.643h27.143l.71-53.233Z" style="fill:#4f6c8e"/><path d="M179.9,147.239h64.364L264.01,258.006,244.264,285.7H188.44S181.129,204.711,179.9,147.239Z" style="fill:#fff"/><path d="M252,230.012l-62.934-49.081v14.336S220.849,228.8,252,233.089Z" style="fill:#cecece"/><path d="M188.44,285.7h22.07c-4.37-40.9-5.566-120.561-5.566-120.561.073-5.894-4.184-14.422-4.184-14.422-.592-1.195-1.1-2.345-1.565-3.476H179.9C181.129,204.711,188.44,285.7,188.44,285.7Z" style="fill:#cecece"/><path d="M168.977,274.444s48.824,9.815,89.337,0L257.275,290.6s-59.471,11.687-88.3-4.155Z" style="fill:#5d5d72"/><path d="M260.686,271.527a94.862,94.862,0,0,0,15.328,19.466,9.706,9.706,0,0,0,14.863-1.672c4.819-7.5,8.286-21.062-2.7-43.03Z" style="fill:#a26a64"/><path d="M99.166,168.91l-28.15-5.328a15.181,15.181,0,0,0-7.116.282,12.339,12.339,0,0,0-2.194.872,8.248,8.248,0,0,0-4.345,7.35v19.491a10.164,10.164,0,0,0,10.164,10.164h34.2Z" style="fill:#ffddcf"/><path d="M242.211,256.227s-12.284,10.566-13.971,22.311l4.315.245a2.958,2.958,0,0,1,2.825,2.539l0,.031,1.091,11.335A6.759,6.759,0,0,0,243.2,298.8h14.171A7.967,7.967,0,0,0,265,292.314a102.359,102.359,0,0,0,.473-17.87l2.775-6.421-21.338-13.952Z" style="fill:#ffddcf"/><path d="M264.887,293.028c.817-4.763.883-11.731.587-18.584l2.775-6.421L250.772,256.6l-.38.161s5.455,6.234,4.481,22.791L253.9,293.71a7.56,7.56,0,0,1-3.252,5.089h6.726C260.662,298.8,264.33,296.269,264.887,293.028Z" style="fill:#e58883"/><path d="M198.952,112.818,183.92,125.066l3.789,28.418a30.4,30.4,0,0,0,7.6,9.607,22.941,22.941,0,0,0,25.6,2.818,56.357,56.357,0,0,0,18.335-15.456l-2.652-30.692Z" style="fill:#ffddcf"/><path d="M237.882,152.13c.456-.544.91-1.1,1.358-1.677l-2.652-30.692-37.636-6.943L183.92,125.066l3.789,28.418a30.4,30.4,0,0,0,7.6,9.607c2.107,1.814,6.578,4.5,9.794,4.914-.261-4.986-.56-9.208-.56-9.208a29.609,29.609,0,0,0-2.656-11.558,82.776,82.776,0,0,1-3.066-9.215,2.9,2.9,0,0,1,4.63-2.867A90.418,90.418,0,0,0,237.882,152.13Z" style="fill:#e58883"/><path d="M227.917,121.975s7.838,11.022-2.59,27.342a16.12,16.12,0,0,0-2.5,8.783c.109,16.832-1.744,53.106,23.941,93.337l-4.561,4.79s14.294,6.726,23.263,18.217c0,0,13.766-10.155,29.959-23.986a14.05,14.05,0,0,0,4.812-12.432,406.9,406.9,0,0,0-23.675-93.037,17.97,17.97,0,0,0-1.027-2.189,48.229,48.229,0,0,0-4.054-4.6c-6.5-5.822-21.1-18.5-32.361-22.113Z" style="fill:#eaa595"/><path d="M276.57,144.989a17.97,17.97,0,0,0-1.027-2.189,48.229,48.229,0,0,0-4.054-4.6c-6.5-5.822-21.1-18.5-32.361-22.113l-11.211,5.886s7.494,10.557-1.954,26.3v0s28.766,9.309,52.838,2.61C278.078,148.931,277.339,146.965,276.57,144.989Z" style="fill:#a26a64"/><path d="M196.347,116.742s-12.985,13.39-2.625,32.563a19.32,19.32,0,0,1,2.409,9.084c.095,20.665-.327,97.458,4.644,140.41,0,0-19.9,4.165-39.195-12.51a12.2,12.2,0,0,1-4.244-9.219V236.775l-3.9,5.58a8.16,8.16,0,0,1-11.376,2.017c-9.872-6.922-28.63-20.532-42.67-33.474a7.9,7.9,0,0,1-2.528-6.325l2.3-35.663,37.626,30.47s10.064-27.034,19.427-48.08a41.122,41.122,0,0,1,6.185-9.867c5.673-6.7,17.108-19.037,31.634-28.615Z" style="fill:#eaa595"/><path d="M77.258,115.053l.965-.114a8.209,8.209,0,0,1,9.168,8.361L85.117,224.892a5.253,5.253,0,0,1-5.04,5.116h0a5.253,5.253,0,0,1-5.458-4.98l-4.6-101.4A8.209,8.209,0,0,1,77.258,115.053Z" style="fill:#e79179"/><path d="M79.545,128.639s-35.311,5.482-39.76-36.493A43.909,43.909,0,0,1,41.6,75.77a5.713,5.713,0,0,1,8.7-2.928A14.529,14.529,0,0,0,58.176,75.5,15.616,15.616,0,0,0,73.131,65.031,46.06,46.06,0,0,0,74.984,41.78C73.7,33.946,83.577,29.327,88.77,35.331a52.379,52.379,0,0,1,11.777,24.178,49.46,49.46,0,0,1,.694,13.587c-.257,3.378-.122,8.57,2.249,13.01a7.853,7.853,0,0,0,8.209,4.032l.157-.027a5.386,5.386,0,0,1,6.251,6.323C115.908,107.771,107.932,125.96,79.545,128.639Z" style="fill:#ff7a6c"/><path d="M67.306,110.635a19.551,19.551,0,0,1-3.04-6.589c-1.738-6.643,3.293-13.114,8.2-10.461A13.191,13.191,0,0,0,79.5,95.244,16.281,16.281,0,0,0,83.03,94.7c5.04-1.4,9.594,4.75,7.983,11.235a13.974,13.974,0,0,1-3.049,6.011,10.058,10.058,0,0,1-7.6,3.477H76.022A10.809,10.809,0,0,1,67.306,110.635Z" style="fill:#fff1db"/><path d="M55.337,43.743a4,4,0,0,1-4-4V38.5a4,4,0,0,1,8,0v1.244A4,4,0,0,1,55.337,43.743Z" style="fill:#ff7a6c"/><path d="M118.209,75.12a4,4,0,0,1-4-4V69.876a4,4,0,0,1,8,0V71.12A4,4,0,0,1,118.209,75.12Z" style="fill:#ff7a6c"/><path d="M132.24,208.243a.87.87,0,0,0,1.7.186l2.855-9.049-5.727-4.637Z" style="fill:#a26a64"/><path d="M153.742,215.136l-4.953,12.129A6.543,6.543,0,0,1,138.6,229.87l-41.21-33.5-.528,8.2A7.9,7.9,0,0,0,99.4,210.9c14.04,12.942,32.8,26.552,42.67,33.474a8.16,8.16,0,0,0,11.376-2.017l3.9-5.58V215.841A1.866,1.866,0,0,0,153.742,215.136Z" style="fill:#a26a64"/><path d="M254.005,138.393c-.008-.128-.019-.258-.028-.387-.027-.391-.058-.782-.1-1.176q-.027-.273-.057-.546c-.039-.349-.083-.7-.131-1.051-.026-.2-.052-.392-.082-.589-.056-.372-.12-.744-.188-1.118-.03-.167-.055-.333-.088-.5q-.145-.753-.325-1.509c-.057-.24-.123-.48-.184-.72-.074-.286-.148-.572-.229-.858-.076-.269-.158-.539-.241-.809q-.119-.382-.246-.765c-.094-.284-.19-.567-.292-.85-.086-.238-.179-.475-.271-.712-.113-.3-.223-.589-.346-.882-.057-.139-.123-.277-.183-.415q-.415-.96-.9-1.913c-.1-.207-.207-.414-.317-.621-.162-.3-.334-.607-.508-.91-.119-.209-.24-.417-.365-.625q-.272-.454-.561-.905c-.043-.067-.081-.135-.125-.2l-.014-.008a36.769,36.769,0,0,0-6.527-7.5H229.265a21.482,21.482,0,0,0,1.638,7.589l-2.986,1.568s7.838,11.022-2.59,27.342a16.12,16.12,0,0,0-2.5,8.783c.025,3.8-.048,8.589.115,14.186.014-.092.97-6.494,4.848-10.4,6.378-6.426,15.832-5.6,19.405-2.313q.256.237.5.508a1.826,1.826,0,0,0,3.091-.579A55.211,55.211,0,0,0,254.005,138.393Z" style="fill:#eaa595"/><path d="M254.005,138.393c-.008-.128-.019-.258-.028-.387-.027-.391-.058-.782-.1-1.176q-.027-.273-.057-.546c-.039-.349-.083-.7-.131-1.051-.026-.2-.052-.392-.082-.589-.056-.372-.12-.744-.188-1.118-.03-.167-.055-.333-.088-.5q-.145-.753-.325-1.509c-.057-.24-.123-.48-.184-.72-.074-.286-.148-.572-.229-.858-.076-.269-.158-.539-.241-.809q-.119-.382-.246-.765c-.094-.284-.19-.567-.292-.85-.086-.238-.179-.475-.271-.712-.113-.3-.223-.589-.346-.882-.057-.139-.123-.277-.183-.415q-.415-.96-.9-1.913c-.1-.207-.207-.414-.317-.621-.162-.3-.334-.607-.508-.91-.119-.209-.24-.417-.365-.625q-.272-.454-.561-.905c-.043-.067-.081-.135-.125-.2l-.014-.008a36.769,36.769,0,0,0-6.527-7.5H229.265a21.482,21.482,0,0,0,1.638,7.589l-2.986,1.568s7.494,10.557-1.954,26.3v0a122.658,122.658,0,0,0,26.694,4.813A51.97,51.97,0,0,0,254.005,138.393Z" style="fill:#a26a64"/><path d="M193.722,149.305c-9.014-16.146-1.258-27.613,1.594-31.329l2.134-2.1-.422-3.054-1.823-4.215c-10.415,4.753-15.305,11.364-15.305,11.364a44.133,44.133,0,0,0-4.959,8.2l-.008.007c-.033.071-.063.142-.1.214-.119.258-.236.515-.349.772-.076.172-.148.343-.221.515-.112.263-.225.526-.331.789-.022.052-.041.1-.061.155q-.354.883-.663,1.756c-.058.16-.116.321-.172.481-.087.255-.172.508-.254.761q-.084.255-.164.509c-.078.247-.155.493-.228.737-.053.176-.1.35-.152.525q-.172.6-.327,1.188c-.053.2-.106.4-.156.6s-.1.419-.151.627-.094.4-.138.6-.087.39-.128.584c-.046.216-.089.43-.132.643-.034.17-.069.341-.1.509q-.1.54-.193,1.066c-.018.109-.034.215-.052.323-.044.27-.087.538-.126.8-.007.048-.016.1-.023.147l0,0a52.516,52.516,0,0,0-.56,7.291,2.643,2.643,0,0,0,2.331,2.643c5.61.656,20,3.741,23.732,18.182-.049-5.063-.075-9.224-.089-12.2a18.906,18.906,0,0,0-1.627-7.48C194.267,150.365,194.013,149.825,193.722,149.305Z" style="fill:#eaa595"/><path d="M174.893,52.508h-16.32a14.155,14.155,0,0,0-8.335,2.666,27.457,27.457,0,0,0-2.268,1.842,7.719,7.719,0,0,0,4.451,13.364c10.911,1.117,27.237,2.147,42.074.546,0,0,5.151-11.018,5.294-11.59s-10.445-6.828-10.445-6.828Z" style="fill:#a26a64"/><path d="M178.842,52.508s-5.89,19.243,1.485,39.014L195.5,101.748,220.24,62.13Z" style="fill:#5d5d72"/><path d="M209.9,65.876s-11.382,7.636-16.281,24.494a15.68,15.68,0,0,0-3.6-2.151c-9.4-4.1-18.842,5.8-14.594,15.129.041.09.083.181.127.272a11.181,11.181,0,0,0,10.383,6.608,15.526,15.526,0,0,0,5.984-1.561s-.889,11.815,15.391,16.713a61.56,61.56,0,0,0,18.675,3.251,16.294,16.294,0,0,0,16.807-14.9c1.1-10.25,2.258-25.109-.038-40.074Z" style="fill:#ffddcf"/><path d="M172.952,51.909l84.07.6a23.2,23.2,0,0,1-4.876-2.4,20.823,20.823,0,0,1-9.514-17.628V13.324a3.5,3.5,0,0,0-3.566-3.509,269.776,269.776,0,0,0-43.755,4.361,11.237,11.237,0,0,0-7.483,5.252C184.017,25.768,177.192,37.873,172.952,51.909Z" style="fill:#eaa595"/><path d="M244.194,99.436q.041-1.437.056-2.917l0-.154c.029-2.991-.02-6.1-.178-9.28-.008-.179-.02-.359-.03-.538q-.066-1.233-.153-2.476-.033-.47-.071-.941-.083-1.069-.183-2.148c-.033-.352-.066-.7-.1-1.055-.073-.724-.156-1.449-.242-2.176-.038-.323-.073-.646-.114-.97-.132-1.04-.274-2.081-.434-3.124L209.9,65.876A41.088,41.088,0,0,0,199.8,76.854a147.426,147.426,0,0,0,30.947,18,7.665,7.665,0,0,1,4.643,5.676,36.593,36.593,0,0,1,.582,6.462s.657,17.74-9.031,21.623a16.8,16.8,0,0,0,16.289-15c.441-4.1.814-8.921.962-14.183Z" style="fill:#e58883"/><path d="M244.367,40.906H176.9c-1.433,3.474-2.79,7.162-3.95,11l84.07.6a23.2,23.2,0,0,1-4.876-2.4A20.354,20.354,0,0,1,244.367,40.906Z" style="fill:#a26a64"/><path d="M177.808,52.508a143.02,143.02,0,0,1,14.664,7.433q3.1,1.8,6.055,3.84c5.248,3.609,26.74,17.237,54.406,19.071a35.227,35.227,0,0,0,13.3-1.683,53.844,53.844,0,0,0,17.149-9.018c8.012-6.6,3.2-19.643-7.176-19.643Z" style="fill:#eaa595"/><path d="M65.2,163.291H72.99a6.555,6.555,0,0,1,6.555,6.555v23.938a8.107,8.107,0,0,1-8.107,8.107H65.2a9.8,9.8,0,0,1-9.8-9.8V173.087A9.8,9.8,0,0,1,65.2,163.291Z" style="fill:#ffddcf"/><path d="M85.117,225.285l1.544-63.7c-6.786,1.166-11.7.518-15.217-.82l3.175,64.644a5.109,5.109,0,0,0,5.458,4.6A5.058,5.058,0,0,0,85.117,225.285Z" style="fill:#c17463"/><path d="M99.166,168.91s-2.828-6.5-12.506-7.56c0,0-15.247-3.7-16.838,7.56v12.269a2.577,2.577,0,0,0,2.577,2.577h.837a8.77,8.77,0,0,0,8.679-7.512l.237-1.636s2.853,11.93,15.878,11.93Z" style="fill:#ffddcf"/><path d="M98.03,186.538,98.8,174.65l-6.859,11.888A10.427,10.427,0,0,0,98.03,186.538Z" style="fill:#e58883"/><path d="M170.327,292.518c16.124,9.272,30.448,6.281,30.448,6.281-3.542-30.606-4.346-78.391-4.55-110.811-5.5-8.092-11.137-18.019-13.265-27.221,0,0-2.026-5.709-10.472-8.36,0,0-1.119-3.835.134-12.811a118.55,118.55,0,0,0-4.481,20.378,8.36,8.36,0,0,0,3.768,8.054c5.554,3.48,14.608,13.147,13.567,38.982,0,0,1.964,53.1,2.866,77.588C188.342,284.6,189.574,299.958,170.327,292.518Z" style="fill:#a26a64"/><path d="M265.933,235.931c1.745-37.785-5.533-61.587-5.533-61.587.792,16.018-2.074,39.91-3.426,49.992a10.187,10.187,0,0,1-4.7,7.281L239.821,239.4c2.061,3.963,4.36,7.978,6.951,12.037l-4.561,4.79Z" style="fill:#a26a64"/><path d="M51.68,125.155a36.93,36.93,0,0,0,14.71,6.73l1.244,27.42a18.313,18.313,0,0,0-4.866.722,16.294,16.294,0,0,0-2.906,1.16,12.184,12.184,0,0,0-6.5,10.9v19.491a14.18,14.18,0,0,0,14.165,14.164H69.74l.884,19.493a9.287,9.287,0,0,0,9.24,8.778c.124,0,.248,0,.373-.007a9.279,9.279,0,0,0,8.88-9.024l.43-19.24h3.325a11.839,11.839,0,0,0,3.812,8.1c14.2,13.086,33.087,26.8,43.085,33.809a12.183,12.183,0,0,0,13.567.269V277.07a16.189,16.189,0,0,0,5.629,12.246c.684.591,1.371,1.152,2.058,1.7l-1.5,39.018a4,4,0,0,0,3.844,4.15q.078,0,.156,0a4,4,0,0,0,3.995-3.846l1.306-34.05a57.728,57.728,0,0,0,28.242,7.569,36.64,36.64,0,0,0,5.456-.347,4,4,0,0,0,3.335-4.408c-.019-.163-.037-.33-.056-.493q3.495.137,7.177.142,4.866,0,10.03-.238a4,4,0,1,0-.369-7.991c-6.249.289-12.172.3-17.674.046-.247-2.612-.481-5.314-.7-8.087q6.567.324,12.877.325,7.376,0,14.319-.453l1.033,10.718A10.716,10.716,0,0,0,243.2,302.8h14.171a10.743,10.743,0,0,0,5.836-1.721l1.042,29.249a4,4,0,0,0,4,3.857l.145,0a4,4,0,0,0,3.855-4.14l-1.373-38.533c.788.817,1.58,1.614,2.379,2.377a13.765,13.765,0,0,0,9.523,3.825,14.082,14.082,0,0,0,1.649-.1,13.532,13.532,0,0,0,9.819-6.13c4.376-6.811,8.116-18.571,1.976-36.444q.9-.763,1.811-1.54a17.99,17.99,0,0,0,6.184-15.973A413.333,413.333,0,0,0,280.3,143.537a22.439,22.439,0,0,0-5.932-8.524c-6-5.372-17.062-14.635-27.324-19.887.058-.36.129-.715.168-1.08a177.235,177.235,0,0,0,.839-27.623c1.521.172,3.059.317,4.62.42q1.3.087,2.6.087a39.062,39.062,0,0,0,12.208-1.961,58.076,58.076,0,0,0,18.444-9.73,14.849,14.849,0,0,0,4.559-16.657A15.026,15.026,0,0,0,276.2,48.508H257.735a21.133,21.133,0,0,1-3.446-1.774,16.928,16.928,0,0,1-7.657-14.25V13.324a7.456,7.456,0,0,0-2.248-5.361,7.54,7.54,0,0,0-5.39-2.147A274.983,274.983,0,0,0,194.55,10.25,15.253,15.253,0,0,0,184.4,17.367a162.382,162.382,0,0,0-14.557,31.141H158.573a18.039,18.039,0,0,0-10.688,3.431,31.854,31.854,0,0,0-2.6,2.109,11.718,11.718,0,0,0,6.725,20.311c3.847.394,7.7.709,11.447.938.083.005.166.008.248.008a4,4,0,0,0,.24-7.993c-3.64-.222-7.382-.529-11.12-.911a3.7,3.7,0,0,1-3.181-2.577,3.591,3.591,0,0,1,1-3.84,23.772,23.772,0,0,1,1.937-1.575,10.1,10.1,0,0,1,5.984-1.9h18.4a143.632,143.632,0,0,1,13.482,6.89c1.957,1.139,3.908,2.377,5.8,3.68.957.657,2.313,1.555,4.027,2.606A50.113,50.113,0,0,0,191.4,84.462a14.911,14.911,0,0,0-8.432-.972,112.933,112.933,0,0,1-1.293-18.182,4,4,0,1,0-8-.111,122.776,122.776,0,0,0,1.789,22.059c-.209.19-.417.38-.618.584a15.284,15.284,0,0,0-3.067,17.17l.15.324a15.222,15.222,0,0,0,13.211,8.893c-2.748,2.082-5.346,4.22-7.787,6.349-.046.038-.09.078-.134.118a173.93,173.93,0,0,0-17.866,18.155,45.145,45.145,0,0,0-6.788,10.825c-9.306,20.918-19.42,48.039-19.521,48.311-.012.032-.014.065-.025.1s-.031.062-.041.095l-3.371,10.684a4,4,0,1,0,7.63,2.406l3.341-10.59c.671-1.8,10.369-27.685,19.3-47.751a37.116,37.116,0,0,1,5.583-8.908c.469-.555,1-1.168,1.557-1.806a36.768,36.768,0,0,0-.759,10.467,4,4,0,0,0,4.075,3.55c.9-.011,8.725.049,9.608,9.289a4,4,0,0,0,3.977,3.62c.128,0,.256-.007.386-.019a4,4,0,0,0,3.6-4.363c-1.011-10.575-8.024-14.84-13.681-16.1a41.767,41.767,0,0,1,8.63-22.269c1.791-1.556,3.676-3.111,5.639-4.643-2.911,6.521-5.03,16.98,1.713,29.46a15.418,15.418,0,0,1,1.928,7.2c.1,21.691.782,94.033,5.325,137.46a49.792,49.792,0,0,1-29.994-10h0c-1.09-.806-2.18-1.67-3.265-2.608a8.192,8.192,0,0,1-2.86-6.193V206.333a4,4,0,1,0-8,0v29.184l-3.175,4.548a4.158,4.158,0,0,1-5.8,1.031c-9.834-6.9-28.4-20.369-42.256-33.139a3.9,3.9,0,0,1-1.247-3.127l1.163-18.033v0l.612-9.5.026-.4,19.848,16.073a4,4,0,0,0,5.035-6.217l-25.259-20.455c-1.386-2.309-5.6-7.777-14.945-8.887a26.435,26.435,0,0,0-11.779.083l-1.117-24.623c.394.01.774.016,1.135.016a33.446,33.446,0,0,0,4.443-.265c1.085-.1,2.137-.234,3.169-.379l-.343,15.323a4,4,0,0,0,3.91,4.088h.091a4,4,0,0,0,4-3.911l.384-17.172c22.087-6.21,28.793-23,30.805-33.367a9.386,9.386,0,0,0-10.871-11.023l-.127.021a3.829,3.829,0,0,1-4.018-1.97c-1.988-3.725-1.974-8.381-1.788-10.824a52.96,52.96,0,0,0-.763-14.686,56.379,56.379,0,0,0-12.672-26,11.919,11.919,0,0,0-20.759,9.712A42.205,42.205,0,0,1,69.37,63.67,11.7,11.7,0,0,1,58.3,71.5a10.548,10.548,0,0,1-5.733-1.944,9.712,9.712,0,0,0-14.786,5.006,47.842,47.842,0,0,0-1.977,18.008C37.368,107.292,42.708,118.255,51.68,125.155Zm154.337,4.016a66.268,66.268,0,0,0,19.838,3.459c.21.006.417.009.626.009.086,0,.169-.011.254-.012,0,3.771-1.061,8.718-4.778,14.536a20.05,20.05,0,0,0-3.125,10.963c.007,1.1,0,2.278,0,3.538,0,.261,0,.535,0,.8a19.01,19.01,0,0,1-18.686-.775c-.008-1.209-.013-2.322-.018-3.322a23.446,23.446,0,0,0-2.89-10.968c-5.438-10.064-3.593-18.157-1.152-23.114A31.286,31.286,0,0,0,206.017,129.171Zm-5.8,41.476a26.838,26.838,0,0,0,18.695.443,169.435,169.435,0,0,0,3.943,33.529,170.159,170.159,0,0,1-22.476-20.613C200.311,179.117,200.259,174.623,200.22,170.647ZM257.373,294.8H243.2a2.748,2.748,0,0,1-2.746-2.5l-1.249-12.969a4,4,0,0,0-1.881-3.021l-1.4-.863a2.934,2.934,0,0,1-1.331-1.864,2.991,2.991,0,0,1,.409-2.3,76.69,76.69,0,0,1,8-10.13c4.111,2.286,12.448,7.457,18.5,14.735a91.376,91.376,0,0,1-1.414,16.626A2.746,2.746,0,0,1,257.373,294.8Zm30.139-7.64a5.483,5.483,0,0,1-4.035,2.51,5.794,5.794,0,0,1-4.7-1.569,84.9,84.9,0,0,1-9.25-10.571q0-.559,0-1.119c3.227-2.432,10.821-8.235,20.056-15.83C293.363,273.739,290.691,282.212,287.512,287.159ZM269.029,140.974a14.388,14.388,0,0,1,3.813,5.466,404.819,404.819,0,0,1,23.434,92.086,10.012,10.012,0,0,1-3.442,8.89c-11.49,9.816-21.845,17.836-26.746,21.561A76.4,76.4,0,0,0,248.714,255.2l.888-.932c.924-.881,13.5-12.762,26.361-19.87a4,4,0,0,0-3.87-7c-.722.4-1.441.814-2.158,1.237-.047-11.462-.671-34.229-4.405-55a4,4,0,0,0-7.874,1.416c4.289,23.849,4.336,51.27,4.257,58.8A170.929,170.929,0,0,0,244,248.556c-.021.021-.036.046-.057.067s-.044.035-.064.056l-4.5,4.729a86.255,86.255,0,0,0-11.091,13.547,10.921,10.921,0,0,0-1.62,7.644c-7.316.313-15.014.261-23-.163-1.744-25.2-2.632-54.836-3.084-78.631A163.3,163.3,0,0,0,226.1,216.666a150.872,150.872,0,0,0,9.58,23.444,4,4,0,1,0,7.127-3.634,144.155,144.155,0,0,1-9.424-23.222,4.02,4.02,0,0,0-.121-.4c-6.449-21.231-6.437-39.191-6.423-51.181,0-1.28,0-2.481,0-3.6a12.064,12.064,0,0,1,1.866-6.6c5.233-8.191,6.316-15.3,5.985-20.554a21.086,21.086,0,0,0,9.545-8.238C253.861,127.816,264.544,136.959,269.029,140.974ZM191.256,21.488a7.245,7.245,0,0,1,4.816-3.385,266.165,266.165,0,0,1,42.56-4.278V32.484a24.974,24.974,0,0,0,5.7,16.024H178.3A157.082,157.082,0,0,1,191.256,21.488Zm3.27,35.02H276.2a7.035,7.035,0,0,1,6.746,4.775,6.864,6.864,0,0,1-2.114,7.781,50.094,50.094,0,0,1-15.852,8.3A31.1,31.1,0,0,1,253.2,78.861c-26.366-1.748-46.778-14.507-52.4-18.376C198.749,59.08,196.641,57.742,194.526,56.508Zm-15.368,45.4-.1-.219a7.262,7.262,0,0,1,1.49-8.239,6.853,6.853,0,0,1,7.863-1.566,12.224,12.224,0,0,1,2.6,1.525,4,4,0,0,0,6.441-1.924,43.041,43.041,0,0,1,9.97-17.77A120.613,120.613,0,0,0,239.96,85.193c.042.658.081,1.315.114,1.967l-1.972.3a4,4,0,1,0,1.209,7.908l.947-.145a175.18,175.18,0,0,1-1,17.967A12.74,12.74,0,0,1,226.1,124.633a58.594,58.594,0,0,1-17.346-2.981c-.1-.038-.2-.072-.3-.1-5.054-1.521-8.076-3.718-9.885-5.857a3.913,3.913,0,0,0-.369-.458,11.725,11.725,0,0,1-1.514-2.566,3.972,3.972,0,0,0-.312-.827,8.51,8.51,0,0,1-.475-2.874,4,4,0,0,0-5.687-3.922,11.693,11.693,0,0,1-4.45,1.186A7.159,7.159,0,0,1,179.158,101.909ZM67.525,197.741a6.172,6.172,0,0,1-6.165-6.164V172.086a4.271,4.271,0,0,1,2.192-3.8,8.3,8.3,0,0,1,1.48-.585,9.7,9.7,0,0,1,.994-.223c-.058.289-.122.575-.165.874a4.019,4.019,0,0,0-.039.559v14.845a4,4,0,0,0,3.1,3.889l.458,10.1Zm18.347-6.585a4.029,4.029,0,0,0-4.088,3.91l-.665,29.724a1.254,1.254,0,0,1-2.5.057L76.907,187.2a12.906,12.906,0,0,0,5.667-3.531,19.328,19.328,0,0,0,11.215,6.477l-.49,7.6H89.726l.056-2.5A4,4,0,0,0,85.872,191.156Zm-.157-25.92a4.018,4.018,0,0,0,.509.09c5.421.594,7.948,3.257,8.872,4.548l-.787,12.194a12.033,12.033,0,0,1-8.266-8.391,4,4,0,0,0-3.889-3.069q-.091,0-.183,0a4,4,0,0,0-3.777,3.422l-.237,1.637a4.8,4.8,0,0,1-4.135,4.049v-10.5a4.761,4.761,0,0,1,1.2-2.595l.015-.015a4.237,4.237,0,0,1,.647-.545C78.525,164.123,84.025,164.837,85.715,165.236ZM45.408,76.982a1.633,1.633,0,0,1,1.053-1.066,1.8,1.8,0,0,1,.579-.1,1.7,1.7,0,0,1,.978.313A18.409,18.409,0,0,0,58.05,79.493a19.489,19.489,0,0,0,18.842-13.1,50.194,50.194,0,0,0,2.039-25.258,3.92,3.92,0,0,1,6.814-3.187A48.478,48.478,0,0,1,96.627,60.305a45.064,45.064,0,0,1,.625,12.489c-.307,4.043-.086,9.962,2.709,15.2a11.821,11.821,0,0,0,12.4,6.092l.185-.032a1.383,1.383,0,0,1,1.27.4,1.337,1.337,0,0,1,.363,1.223c-2.065,10.646-8.628,23.5-27.585,27.808l-.028.006a58.04,58.04,0,0,1-7.4,1.171c-.08.008-.159.017-.238.03a31.574,31.574,0,0,1-8.006-.115c-.051-.009-.1-.013-.155-.02a29.887,29.887,0,0,1-14.213-5.738c-7.169-5.513-11.473-14.628-12.8-27.119A39.734,39.734,0,0,1,45.408,76.982Z" style="fill:#3d3c4c"/><path d="M64.4,112.772h0a14.451,14.451,0,0,0,11.67,6.28h4.2a13.7,13.7,0,0,0,10.34-4.7,17.491,17.491,0,0,0,3.843-7.509,13.9,13.9,0,0,0-3.43-13.161,9.415,9.415,0,0,0-9.249-2.525,11.966,11.966,0,0,1-2.549.389,8.714,8.714,0,0,1-4.692-1.131,8.56,8.56,0,0,0-9.592.888c-3.769,2.96-5.461,8.621-4.115,13.765A22.988,22.988,0,0,0,64.4,112.772Zm5.486-15.181c.452-.357.626-.261.848-.141a16.719,16.719,0,0,0,8.912,2.081,19.811,19.811,0,0,0,4.277-.672c.183-.05.743-.207,1.526.555a5.845,5.845,0,0,1,1.243,5.5,9.6,9.6,0,0,1-2.056,4.122,5.711,5.711,0,0,1-4.363,2.022h-4.2a6.48,6.48,0,0,1-5.193-2.976,15.017,15.017,0,0,1-2.31-5.039A5.51,5.51,0,0,1,69.889,97.591Z" style="fill:#3d3c4c"/><path d="M219.215,94.635l3.012.46a4.067,4.067,0,0,0,.609.046,4,4,0,0,0,.6-7.954l-3.012-.46a4,4,0,0,0-1.208,7.908Z" style="fill:#3d3c4c"/><path d="M240.092,153.907a11.421,11.421,0,0,0-8.144,6.246,16.5,16.5,0,0,0-1.218,9.084,3.981,3.981,0,0,0,3.93,3.309,4.155,4.155,0,0,0,.653-.053,4.016,4.016,0,0,0,3.308-4.575,8.529,8.529,0,0,1,.555-4.335,3.345,3.345,0,0,1,2.439-1.823,3.272,3.272,0,0,1,2.874.754,4.285,4.285,0,0,1,1.116,1.809,4,4,0,0,0,7.265.653c.343-.609,8.283-15.138-2.516-34.088a4,4,0,0,0-6.951,3.961c4.775,8.378,5.032,15.5,4.307,20.2A11.274,11.274,0,0,0,240.092,153.907Z" style="fill:#3d3c4c"/><path d="M214.9,334.184a4,4,0,0,0,4-4v-2.925a19.435,19.435,0,0,0-6.336-14.339l-3.789-3.451a4,4,0,0,0-5.387,5.915l3.789,3.451a11.415,11.415,0,0,1,3.723,8.424v2.925A4,4,0,0,0,214.9,334.184Z" style="fill:#3d3c4c"/></svg>