<?xml version="1.0" ?><svg id="icon" viewBox="0 0 340 340" xmlns="http://www.w3.org/2000/svg"><title/><path d="M75.08,207.213c-7.9,13.416-15.051,28.725-21.754,45.178a23.574,23.574,0,0,0,9.227,30.524c9.271,5.482,31.507,16.924,48.475,21.647l7.639-25.255L87.591,257.292s7.656-15.223,17.728-32.17C105.319,225.122,96.25,207.354,75.08,207.213Z" style="fill:#ffddcf"/><path d="M264.92,207.213c7.9,13.416,15.051,28.725,21.754,45.178a23.573,23.573,0,0,1-9.227,30.524,162.795,162.795,0,0,1-39.246,16.4l-7.64-25.255,21.848-16.772s-7.656-15.223-17.728-32.17C234.681,225.122,243.75,207.354,264.92,207.213Z" style="fill:#ffddcf"/><path d="M243.645,169.921a59.134,59.134,0,0,0-8.825-11.915c-12.72-13.12-25.468-14.261-25.468-14.261-18-18.762-37.893-18.485-39.352-18.438-1.459-.047-21.351-.324-39.352,18.438,0,0-12.748,1.141-25.468,14.261a59.091,59.091,0,0,0-8.824,11.915L75.08,207.213s21.021,5,30.239,17.909l11.027-17.909,3.343,50.374,50.217,8.06v.031l.094-.016.094.016v-.031l50.218-8.06,3.342-50.374,11.027,17.909c9.218-12.9,30.239-17.909,30.239-17.909Z" style="fill:#aac4ef"/><polygon points="117.564 225.573 119.689 257.587 169.906 265.647 169.906 265.678 170 265.662 170.094 265.678 170.094 265.647 220.312 257.587 222.649 222.355 117.564 225.573" style="fill:#7192c1"/><path d="M233.816,157c-12.378-12.167-24.464-13.254-24.464-13.254-18-18.762-37.893-18.485-39.352-18.438-1.191-.039-14.663-.225-29.363,9.908C147.734,143.485,174.249,167.793,233.816,157Z" style="fill:#7192c1"/><path d="M170.094,127.616H149.469v13.758c0,24.5,20.625,29.279,20.625,29.279s20.625-4.782,20.625-29.279V127.616Z" style="fill:#ffddcf"/><path d="M190.719,141.374V127.616h-41.25v13.758c0,.695.022,1.37.054,2.034,7.59,5.694,19.5,12.058,36.873,14.857A31.943,31.943,0,0,0,190.719,141.374Z" style="fill:#f7a59d"/><path d="M92.836,293.479H249.585a12.275,12.275,0,0,1,12.275,12.275v24.9a0,0,0,0,1,0,0H80.561a0,0,0,0,1,0,0v-24.9A12.275,12.275,0,0,1,92.836,293.479Z" style="fill:#5d636f"/><path d="M216.047,251.908h14.14a14.884,14.884,0,0,1,13.983,9.671,92.2,92.2,0,0,1,5.415,31.9H221.946Z" style="fill:#828b99"/><path d="M123.908,251.908h-14.14a14.884,14.884,0,0,0-13.983,9.671,92.2,92.2,0,0,0-5.415,31.9h27.639Z" style="fill:#828b99"/><path d="M232.943,291.122c-.9-24.636-8.314-39.142-14.536-47.07a21.512,21.512,0,0,0-16.926-8.234H138.52a21.513,21.513,0,0,0-16.927,8.234c-6.222,7.928-13.635,22.434-14.536,47.07a7.922,7.922,0,0,0,7.92,8.2H225.023A7.922,7.922,0,0,0,232.943,291.122Z" style="fill:#fff"/><path d="M206.8,63.916,170.156,33.835l-36.78,28.93s-2.81,50.328,18.473,71.1a26.187,26.187,0,0,0,36.593.111C209.7,113.49,206.8,63.916,206.8,63.916Z" style="fill:#ffddcf"/><path d="M206.8,63.916,170.156,33.835l-36.78,28.93s-2.81,50.328,18.473,71.1a26.187,26.187,0,0,0,36.593.111C209.7,113.49,206.8,63.916,206.8,63.916Z" style="fill:#ffddcf"/><path d="M189.378,97.736c-7.914.129-12.5,5.121-16.345,11.186a13.243,13.243,0,0,0-6.066,0c-3.845-6.065-8.431-11.057-16.345-11.186a17.226,17.226,0,0,0-13.547,6.346c2.312,9.705,5.986,19.3,11.8,26.5.475.079.952.154,1.437.21a17.452,17.452,0,0,0,17.733-9.464,2.18,2.18,0,0,1,1.869-1.238l.091,0,.091,0a2.18,2.18,0,0,1,1.869,1.238,17.452,17.452,0,0,0,17.733,9.464c.646-.074,1.282-.172,1.91-.287,5.727-7.113,9.344-16.539,11.613-26.059A17.24,17.24,0,0,0,189.378,97.736Z" style="fill:#f7a59d"/><path d="M175.075,111.358a2.821,2.821,0,0,1-1.333-.334,8.465,8.465,0,0,0-7.471-.006,2.84,2.84,0,0,1-2.716-4.988,14.247,14.247,0,0,1,12.857-.017,2.839,2.839,0,0,1-1.337,5.345Z" style="fill:#d0edf4"/><circle cx="150.307" cy="108.746" r="17.129" style="fill:#c7e2f2"/><circle cx="189.693" cy="108.746" r="17.129" style="fill:#c7e2f2"/><path d="M148.508,95.24a13.607,13.607,0,0,0-10.764,18.752,1.7,1.7,0,0,0,2.64.662l17.757-14.395a1.7,1.7,0,0,0-.113-2.727A13.576,13.576,0,0,0,148.508,95.24Z" style="fill:#fff"/><path d="M188.007,95.24a13.607,13.607,0,0,0-10.763,18.752,1.7,1.7,0,0,0,2.639.662l17.757-14.395a1.7,1.7,0,0,0-.113-2.727A13.575,13.575,0,0,0,188.007,95.24Z" style="fill:#fff"/><path d="M206.8,63.916,170.156,33.835l-36.78,28.93a168.676,168.676,0,0,0,1.257,27.776l6.564-8.993a2.729,2.729,0,0,1,3.789-.624c4.98,3.537,17.968,11.493,32.041,9.812a2.752,2.752,0,0,0,2.376-2.228l.309-1.659a3.176,3.176,0,0,1,4.029-2.462,69.587,69.587,0,0,0,22.309,2.946A161.992,161.992,0,0,0,206.8,63.916Z" style="fill:#f7a59d"/><path d="M140.753,60.388s4.993,17.289,31.073,22.763a67.922,67.922,0,0,0,0-15.133s21.573,19.641,50.229,4.83l-3.22-6.44s7.728-6.761,10.625-15.133L223.343,48.7s-16.1-25.758-40.248-27.368l1.61-11.591S149.61,3.622,129.969,39.684c0,0-12.6,3.881-13.592,24.929a24.713,24.713,0,0,0,3.2,13.676c2.616,4.468,8.4,7.9,14.752,9.692C134.325,87.981,134.509,70.833,140.753,60.388Z" style="fill:#5d5d72"/><path d="M268.4,205.232h0l-21.276-37.292a63.379,63.379,0,0,0-9.427-12.718c-11.106-11.455-22.35-14.477-26.414-15.228a67.19,67.19,0,0,0-13.847-10.726q.829-1.263,1.609-2.607a19.3,19.3,0,0,0,9.308-27.189,153.7,153.7,0,0,0,2.223-18.219A53.567,53.567,0,0,0,223.892,76.4a4,4,0,0,0,1.741-5.343l-1.913-3.826c2.756-2.869,7.318-8.287,9.52-14.648a4,4,0,0,0-2.227-5l-5-2.1c-3.312-4.874-17.494-23.991-38.4-27.633l1.05-7.561A4,4,0,0,0,185.392,5.8a55.2,55.2,0,0,0-21.715,1.524C152.9,10.181,137.918,17.579,127.135,36.55c-4,1.965-13.852,8.721-14.753,27.874a28.643,28.643,0,0,0,3.739,15.887c3.138,5.358,8.064,9.1,14.612,11.178q.6,4.552,1.442,8.793a19.245,19.245,0,0,0,9,26.031q.817,1.439,1.693,2.78a67.042,67.042,0,0,0-14.15,10.9c-4.066.752-15.31,3.774-26.415,15.228a63.379,63.379,0,0,0-9.427,12.718L71.605,205.231h0c-7.392,12.562-14.568,27.459-21.939,45.539a27.411,27.411,0,0,0,10.852,35.587c2.783,1.646,6.42,3.647,10.242,5.636a4,4,0,0,0,3.693-7.1c-3.7-1.924-7.2-3.85-9.864-5.425a19.458,19.458,0,0,1-7.659-25.344c.035-.075.068-.15.1-.227a354.67,354.67,0,0,1,19.955-41.989c5.29,1.648,16.758,5.91,23.491,13.547-9.338,15.913-16.384,29.89-16.457,30.037a4,4,0,0,0,1.26,5.06l5.351,3.791A97.9,97.9,0,0,0,86.4,290.81a16.293,16.293,0,0,0-9.842,14.944v24.9a4,4,0,0,0,4,4h181.3a4,4,0,0,0,4-4v-24.9a16.291,16.291,0,0,0-12.338-15.774,97.929,97.929,0,0,0-4.1-25.348l5.429-4.168a4,4,0,0,0,1.137-4.969c-.072-.147-7.119-14.125-16.457-30.036,6.719-7.611,18.2-11.888,23.494-13.544A354.845,354.845,0,0,1,282.971,253.9c.031.077.064.152.1.227a19.459,19.459,0,0,1-7.66,25.345c-2.64,1.562-5.426,3.082-8.278,4.518a4,4,0,1,0,3.6,7.146c3.014-1.517,5.96-3.125,8.755-4.778a27.411,27.411,0,0,0,10.851-35.586C282.963,232.691,275.786,217.794,268.4,205.232ZM170.079,166.5c-3.644-1.164-16.609-6.613-16.609-25.121V140.3a30.053,30.053,0,0,0,33.25.141v.929C186.72,159.754,173.678,165.312,170.079,166.5Zm-1.7-53.621h4.176a19.365,19.365,0,0,0,15.964,15.083,33.281,33.281,0,0,1-2.854,3.14A22.181,22.181,0,0,1,154.644,131a33.351,33.351,0,0,1-2.688-2.976A19.365,19.365,0,0,0,168.381,112.874Zm26.765,6.709c-.016,0-.03.012-.046.016a11.438,11.438,0,1,1,.046-.016Zm6.266-27.26a19.284,19.284,0,0,0-28.855,12.551h-4.176a19.3,19.3,0,0,0-29.4-12.219c-.506-3.421-.913-6.973-1.2-10.653a82.221,82.221,0,0,1,3.259-12.682c4.447,6.152,13.257,14.239,29.964,17.746a4,4,0,0,0,4.79-3.417,73.4,73.4,0,0,0,.464-7.823,49.97,49.97,0,0,0,26.217,6.459C202.222,85.735,201.868,89.088,201.412,92.323ZM123.024,76.268A20.691,20.691,0,0,1,120.372,64.8c.833-17.676,10.425-21.172,10.774-21.294a4,4,0,0,0,2.335-1.91c13.662-25.082,35.007-28.288,45.03-28.288.593,0,1.146.011,1.656.029l-1.033,7.443a4,4,0,0,0,3.7,4.541c21.774,1.452,36.974,25.261,37.122,25.5a4,4,0,0,0,1.839,1.566l2.369,1A41.646,41.646,0,0,1,216.2,63.4a4,4,0,0,0-.944,4.8l1.388,2.773A43.47,43.47,0,0,1,206.2,73.946c-.065.009-.127.021-.191.032A40.815,40.815,0,0,1,174.52,65.06a4,4,0,0,0-6.659,3.487,56.651,56.651,0,0,1,.335,9.578c-19.269-5.632-23.408-18.227-23.608-18.872a4,4,0,0,0-7.269-.917c-4.483,7.5-6.727,17.9-7.733,24.081A16.1,16.1,0,0,1,123.024,76.268ZM149.47,97.54a11.334,11.334,0,1,1-3.541,22.093,3.969,3.969,0,0,0-1.016-.39,11.329,11.329,0,0,1,4.557-21.7ZM99.83,171.9a55.341,55.341,0,0,1,8.222-11.114,46.128,46.128,0,0,1,18.307-11.91A136.938,136.938,0,0,0,128.3,174.9a10.548,10.548,0,0,0,15.575,7.594,19,19,0,0,1,8.922-2.141,4,4,0,0,0,.408-7.989,26.914,26.914,0,0,0-13.233,3.147,2.551,2.551,0,0,1-2.381.066,2.454,2.454,0,0,1-1.381-1.878,124.548,124.548,0,0,1-1.678-28.188,59.584,59.584,0,0,1,10.935-8.665v4.524c0,16.451,8.761,25.836,16.6,30.293a12.245,12.245,0,0,0-2.205,7.007v23.875a4,4,0,1,0,8,0V178.674a4.274,4.274,0,0,1,3.221-4.145l.011,0c8.23-1.952,23.625-11.343,23.625-33.151v-4.407a59.671,59.671,0,0,1,10.744,8.545,127.666,127.666,0,0,1-.93,28.191,2.454,2.454,0,0,1-1.381,1.878,2.552,2.552,0,0,1-2.381-.066,26.906,26.906,0,0,0-13.234-3.147,4,4,0,0,0,.407,7.989,18.933,18.933,0,0,1,8.925,2.141,10.541,10.541,0,0,0,15.574-7.594,133.034,133.034,0,0,0,1.232-26.011,46.127,46.127,0,0,1,18.272,11.9A55.341,55.341,0,0,1,240.17,171.9l18.19,31.883a38.691,38.691,0,0,0-23.5,14l-7.8-12.672a4,4,0,0,0-7.4,1.833l-2.032,30.627a25.343,25.343,0,0,0-16.151-5.758H138.52a25.343,25.343,0,0,0-16.151,5.758l-2.032-30.627a4,4,0,0,0-7.4-1.833l-7.8,12.672a38.691,38.691,0,0,0-23.5-14ZM245.5,289.479h-8.625c-.683-14.29-3.524-25.273-7.029-33.571h.344a10.915,10.915,0,0,1,10.231,7.057A87.247,87.247,0,0,1,245.5,289.479Zm-151.039,0a87.247,87.247,0,0,1,5.079-26.514,10.915,10.915,0,0,1,10.232-7.057h.387c-3.5,8.3-6.345,19.281-7.028,33.571Zm16.6,1.79c.866-23.676,7.921-37.4,13.686-44.747a17.412,17.412,0,0,1,13.78-6.7h62.96a17.412,17.412,0,0,1,13.78,6.7c5.765,7.346,12.82,21.071,13.686,44.746a3.921,3.921,0,0,1-3.924,4.051H114.978a3.921,3.921,0,0,1-3.924-4.05Zm-2.3-64.093,4.433-7.2,1.766,26.617c-.265.427-.531.863-.8,1.314h-4.385a18.994,18.994,0,0,0-16.024,8.841l-1.012-.716C95.465,250.768,101.5,239.374,108.751,227.176Zm149.108,78.578v20.9H84.562v-20.9a8.283,8.283,0,0,1,8.274-8.275h11.891a12,12,0,0,0,1.661,2.189,11.835,11.835,0,0,0,8.59,3.651H225.022a11.835,11.835,0,0,0,8.59-3.651,12.049,12.049,0,0,0,1.662-2.189h14.311A8.284,8.284,0,0,1,257.859,305.754Zm-11.541-48.829a18.99,18.99,0,0,0-16.131-9.017h-4.341c-.265-.451-.531-.887-.8-1.314l1.766-26.617,4.433,7.2c7.3,12.282,13.375,23.761,16.078,28.974Z" style="fill:#3d3c4c"/><path d="M188.978,276.937H157.046a4,4,0,0,0,0,8h31.932a4,4,0,0,0,0-8Z" style="fill:#3d3c4c"/><path d="M142.293,279.4a4.767,4.767,0,0,0-.37-.69,3.721,3.721,0,0,0-.5-.6,4.049,4.049,0,0,0-3.611-1.1,4.158,4.158,0,0,0-.75.231,3.8,3.8,0,0,0-.69.37,3.513,3.513,0,0,0-.609.5,3.57,3.57,0,0,0-.491.6,3.892,3.892,0,0,0-.37.69,4.382,4.382,0,0,0-.229.75,3.931,3.931,0,0,0,.229,2.31,3.3,3.3,0,0,0,.37.69,3.251,3.251,0,0,0,.5.609,3.994,3.994,0,0,0,5.651,0,3.747,3.747,0,0,0,.5-.609,3.909,3.909,0,0,0,.37-.69,3.954,3.954,0,0,0,.22-.741,3.886,3.886,0,0,0,0-1.569A4.252,4.252,0,0,0,142.293,279.4Z" style="fill:#3d3c4c"/><path d="M134.136,270.036H193.59a4,4,0,0,0,0-8H134.136a4,4,0,0,0,0,8Z" style="fill:#3d3c4c"/><path d="M206.282,267.563a3.659,3.659,0,0,0,.37.69,3.365,3.365,0,0,0,.5.61,4,4,0,0,0,5.651,0,4.479,4.479,0,0,0,.5-.61,4.338,4.338,0,0,0,.37-.69,3.878,3.878,0,0,0,.22-.75,3.443,3.443,0,0,0,.08-.78,3.5,3.5,0,0,0-.08-.78,4.1,4.1,0,0,0-.22-.75,4.715,4.715,0,0,0-.37-.69,5.028,5.028,0,0,0-.5-.61,4.037,4.037,0,0,0-3.611-1.09,4.151,4.151,0,0,0-.75.229,3.889,3.889,0,0,0-.689.371,4.043,4.043,0,0,0-.61.49,4.112,4.112,0,0,0-.491.61,3.922,3.922,0,0,0-.37.69,4.045,4.045,0,0,0-.309,1.53,4.047,4.047,0,0,0,.08.78A3.9,3.9,0,0,0,206.282,267.563Z" style="fill:#3d3c4c"/><path d="M138.6,255.908h61.381a4,4,0,0,0,0-8H138.6a4,4,0,0,0,0,8Z" style="fill:#3d3c4c"/><path d="M175.822,194.993a4.146,4.146,0,0,0,.691.36,3.832,3.832,0,0,0,.75.23,4.119,4.119,0,0,0,.78.08,4.021,4.021,0,0,0,2.819-1.17,3.518,3.518,0,0,0,.5-.611,3.667,3.667,0,0,0,.37-.689,3.835,3.835,0,0,0,.231-.75,4.138,4.138,0,0,0,.08-.78,4.066,4.066,0,0,0-1.171-2.83,4.909,4.909,0,0,0-.609-.5,4.631,4.631,0,0,0-.691-.361,4.1,4.1,0,0,0-.75-.229,4,4,0,0,0-3.609,6.75A4.47,4.47,0,0,0,175.822,194.993Z" style="fill:#3d3c4c"/></svg>