<?xml version="1.0" ?><svg id="flat" viewBox="0 0 340 340" xmlns="http://www.w3.org/2000/svg"><title/><path d="M322.633,46.674a7.521,7.521,0,0,1-4.678,6.957A31,31,0,0,1,307.11,55.48c-6.013.224-11.476-2.395-17.074-4.451-12.035-4.419-19.573-.412-19.573-.412V11.6a85.194,85.194,0,0,1,19.573,2.643C295.793,15.8,301.1,18.922,307.11,18.7c3.839-.143,8.062-.409,12.11-2.421a2.39,2.39,0,0,1,3.413,2.176Z" style="fill:#ff8080"/><ellipse cx="266.463" cy="89.63" rx="19.39" ry="11.507" style="fill:#ff8080"/><circle cx="40.35" cy="305.411" r="22.982" style="fill:#d4ecff"/><circle cx="40.35" cy="193.541" r="16.251" style="fill:#cae7ff"/><circle cx="264.767" cy="264.516" r="14.708" style="fill:#86bbef"/><circle cx="163.374" cy="130.001" r="13.694" style="fill:#86bbef"/><path d="M40.35,213.792a20.259,20.259,0,0,0,18.082-11.183l172.025,56.578a4,4,0,0,0,2.5-7.6L60.533,194.878c.029-.444.068-.886.068-1.337A20.252,20.252,0,1,0,40.35,213.792Zm0-32.5A12.251,12.251,0,1,1,28.1,193.541,12.265,12.265,0,0,1,40.35,181.29Z" style="fill:#494151"/><path d="M264.767,283.223a18.708,18.708,0,1,0-7.092-36.009l-72.027-91.8a4,4,0,0,0-6.294,4.939L251.1,251.788a18.677,18.677,0,0,0,13.672,31.435Zm0-29.415a10.708,10.708,0,1,1-10.708,10.708A10.721,10.721,0,0,1,264.767,253.808Z" style="fill:#494151"/><path d="M163.373,147.7a17.563,17.563,0,0,0,17.5-20.162l52.277-20.246a4,4,0,1,0-2.889-7.46l-52.258,20.239A17.69,17.69,0,1,0,163.373,147.7Zm0-27.388A9.694,9.694,0,1,1,153.68,130,9.706,9.706,0,0,1,163.373,120.307Z" style="fill:#494151"/><path d="M266.463,105.137c13.115,0,23.39-6.812,23.39-15.507,0-7.789-8.246-14.062-19.39-15.286v-57.4c3.824-1.124,11.488-2.638,17.617.8A36.676,36.676,0,0,0,307.259,22.7a35.783,35.783,0,0,0,11.374-1.819V48.812c-3.512,2.18-7.391,2.511-11.673,2.671a28.745,28.745,0,0,1-14.97-3.944,24.1,24.1,0,0,0-6.321-2.427,4,4,0,1,0-1.814,7.792,16.085,16.085,0,0,1,4.225,1.615,36.654,36.654,0,0,0,19.179,4.958c4.62-.173,11.6-.433,17.884-5.494a4,4,0,0,0,1.49-3.115V14.086a4,4,0,0,0-6.51-3.115c-3.9,3.14-8.266,3.547-13.163,3.73a28.683,28.683,0,0,1-14.97-3.944c-12.048-6.749-26.511-.6-27.122-.332a4,4,0,0,0-2.4,3.668V78.161a4,4,0,0,0,4,4c.1,0,.2-.023.3-.03,8.658.089,15.094,4,15.094,7.5,0,3.544-6.581,7.507-15.39,7.507s-15.39-3.963-15.39-7.507c0-1.745,1.619-3.217,2.583-3.939a4,4,0,0,0-4.8-6.4c-3.731,2.8-5.786,6.468-5.786,10.342C243.073,98.325,253.348,105.137,266.463,105.137Z" style="fill:#494151"/><path d="M40.35,332.394a26.983,26.983,0,0,0,4-53.667V226.345a4,4,0,0,0-8,0v52.382a26.983,26.983,0,0,0,4,53.667Zm0-45.965a18.983,18.983,0,1,1-18.983,18.982A19,19,0,0,1,40.35,286.429Z" style="fill:#494151"/></svg>